<svg width="24" height="24" viewBox="0 0 24 24" fill="none" xmlns="http://www.w3.org/2000/svg">
<rect x="0.5" y="0.5" width="23" height="23" rx="11.5" fill="white" stroke="#E9CFDC"/>
<path d="M9.00001 18.25C8.8993 18.2466 8.80034 18.2227 8.70921 18.1797C8.61807 18.1367 8.53667 18.0756 8.47001 18L3.47001 13C3.37467 12.9382 3.29463 12.8555 3.23592 12.7583C3.17721 12.661 3.14136 12.5517 3.13109 12.4385C3.12082 12.3253 3.13639 12.2113 3.17663 12.1051C3.21686 11.9988 3.28071 11.9031 3.36336 11.8252C3.446 11.7472 3.54528 11.689 3.65369 11.655C3.76211 11.621 3.87682 11.6121 3.98918 11.629C4.10155 11.6458 4.20861 11.688 4.3023 11.7522C4.39599 11.8165 4.47385 11.9012 4.53001 12L9.00001 16.44L19.47 6C19.611 5.90861 19.7785 5.86719 19.9458 5.88238C20.1131 5.89756 20.2705 5.96848 20.3927 6.08376C20.5149 6.19904 20.5948 6.352 20.6197 6.51814C20.6446 6.68428 20.613 6.85396 20.53 7L9.53001 18C9.46334 18.0756 9.38194 18.1367 9.29081 18.1797C9.19967 18.2227 9.10072 18.2466 9.00001 18.25Z" fill="#E9CFDC"/>
</svg>
