<svg width="91" height="91" viewBox="0 0 91 91" fill="none" xmlns="http://www.w3.org/2000/svg">
<g opacity="0.75" filter="url(#filter0_f_2806_30151)">
<ellipse cx="45" cy="79.5" rx="23.5" ry="1" fill="#DDDDDD"/>
</g>
<ellipse cx="46.0002" cy="42" rx="25.5" ry="26.5" transform="rotate(10 46.0002 42)" fill="#FF7F6D"/>
<circle cx="46.1738" cy="41.0152" r="25.5" transform="rotate(10 46.1738 41.0152)" fill="#FFD4D1"/>
<line x1="48.8653" y1="25.7506" x2="45.0451" y2="47.4164" stroke="white" stroke-width="5"/>
<line x1="44.003" y1="52.434" x2="43.1348" y2="57.358" stroke="white" stroke-width="5"/>
<mask id="mask0_2806_30151" style="mask-type:alpha" maskUnits="userSpaceOnUse" x="20" y="15" width="52" height="54">
<path fill-rule="evenodd" clip-rule="evenodd" d="M41.3985 68.0974C55.2678 70.5429 68.5713 60.8412 71.1128 46.428C71.1423 46.2603 71.1703 46.0928 71.1967 45.9253C71.2281 45.7653 71.258 45.6045 71.2864 45.4432C73.732 31.5739 64.4712 18.3481 50.6019 15.9026C36.7326 13.457 23.5068 22.7178 21.0612 36.5871C21.0328 36.7485 21.0059 36.9097 20.9806 37.0709C20.9482 37.2373 20.9171 37.4043 20.8876 37.572C18.3461 51.9852 27.5292 65.6519 41.3985 68.0974Z" fill="#DDDDDD"/>
</mask>
<g mask="url(#mask0_2806_30151)">
<path opacity="0.1" d="M57.3506 15.0616L70.1531 17.3191C73.4165 17.8945 75.5955 21.0064 75.02 24.2698L67.0322 69.571C66.4568 72.8343 63.3449 75.0133 60.0815 74.4379L47.279 72.1805L57.3506 15.0616Z" fill="#FF7F6D"/>
</g>
<defs>
<filter id="filter0_f_2806_30151" x="18.5" y="75.5" width="53" height="8" filterUnits="userSpaceOnUse" color-interpolation-filters="sRGB">
<feFlood flood-opacity="0" result="BackgroundImageFix"/>
<feBlend mode="normal" in="SourceGraphic" in2="BackgroundImageFix" result="shape"/>
<feGaussianBlur stdDeviation="1.5" result="effect1_foregroundBlur_2806_30151"/>
</filter>
</defs>
</svg>
