<svg width="24" height="24" viewBox="0 0 24 24" fill="none" xmlns="http://www.w3.org/2000/svg">
<path fill-rule="evenodd" clip-rule="evenodd" d="M5.85583 3.61739C7.19011 2.72585 8.75879 2.25 10.3635 2.25V3L10.3636 2.25C12.5154 2.25014 14.579 3.105 16.1005 4.62655C17.6221 6.14811 18.477 8.21174 18.4771 10.3635V10.3636C18.4771 11.9683 18.0012 13.537 17.1097 14.8713C16.2182 16.2055 14.951 17.2455 13.4684 17.8596C11.9859 18.4737 10.3545 18.6344 8.78062 18.3213C7.20674 18.0082 5.76104 17.2355 4.62633 16.1008C3.49162 14.9661 2.71888 13.5204 2.40581 11.9465C2.09275 10.3726 2.25342 8.74122 2.86752 7.25866C3.48162 5.77609 4.52156 4.50892 5.85583 3.61739ZM10.3635 3.75C12.1175 3.75012 13.7996 4.44695 15.0399 5.68721C16.2801 6.92748 16.977 8.6096 16.9771 10.3636M10.3635 3.75C9.05543 3.75001 7.77678 4.13789 6.68919 4.86459C5.60159 5.5913 4.75391 6.6242 4.25334 7.83268C3.75277 9.04116 3.6218 10.3709 3.87699 11.6538C4.13218 12.9368 4.76206 14.1152 5.68699 15.0401C6.61192 15.965 7.79035 16.5949 9.07326 16.8501C10.3562 17.1053 11.6859 16.9743 12.8944 16.4738C14.1029 15.9732 15.1358 15.1255 15.8625 14.0379C16.5892 12.9503 16.9771 11.6717 16.9771 10.3636" fill="#E10078"/>
<path fill-rule="evenodd" clip-rule="evenodd" d="M15.327 15.327C15.6199 15.0341 16.0947 15.0341 16.3876 15.327L21.5303 20.4696C21.8232 20.7625 21.8232 21.2374 21.5303 21.5303C21.2374 21.8232 20.7625 21.8232 20.4696 21.5303L15.327 16.3876C15.0341 16.0948 15.0341 15.6199 15.327 15.327Z" fill="#E10078"/>
</svg>
